<svg xmlns="http://www.w3.org/2000/svg" viewBox="0 0 160.12 164.19"><defs><style>.cls-1{fill:#5e9efc;}.cls-2{fill:#fff;}</style></defs><g id="图层_2" data-name="图层 2"><g id="图层_1-2" data-name="图层 1"><path class="cls-1" d="M104.34,27.89A27.89,27.89,0,1,0,132.23,0a27.89,27.89,0,0,0-27.89,27.89Z"/><path class="cls-2" d="M90.81,65.41a22.92,22.92,0,0,0-3.24-4.7L40.34,8.22A23.14,23.14,0,0,0,7.66,6.49h0A23.14,23.14,0,0,0,5.94,39.17L49,87v54a23.14,23.14,0,0,0,23.14,23.14h0a23.14,23.14,0,0,0,23.14-23.14v-62A23,23,0,0,0,90.81,65.41Z"/></g></g></svg>